  0
SECTION
  2
HEADER
  9
$ANGBASE
  50
0.0
  9
$ANGDIR
  70
1
  9
$MEASUREMENT
  70
1
  0
ENDSEC
  0
SECTION
  2
TABLES
  0
TABLE
  2
LTYPE
  70
4
  0
LTYPE
  5
40F
  2
CONTINUOUS
  70
0
  3
Solid line
  72
65
  73
0
  40
0.0
  0
LTYPE
  5
410
  2
DASHDOT
 70
0
  3
Dash Dot ____ _ ____ _
 72
65
 73
4
 40
2.0
 49
1.25
 49
-0.25
 49
0.25
 49
-0.25
  0
LTYPE
  5
411
  2
DASHED
 70
0
  3
Dashed __ __ __ __ __
 72
65
 73
2
 40
0.75
 49
0.5
 49
-0.25
  0
LTYPE
  5
43B
  2
DOTTED
 70
0
  3
Dotted .  .  .  .
 72
65
 73
2
 40
0.2
 49
0.0
 49
-0.2
  0
ENDTAB
  0
TABLE
  2
STYLE
  70
4
  0
STYLE
  2
KICAD
  70
0
  40
0
  41
1
  42
1
  50
0
  71
0
  3
isocp.shx
  0
STYLE
  2
KICADB
  70
0
  40
0
  41
1
  42
1
  50
0
  71
0
  3
isocp.shx
  0
STYLE
  2
KICADI
  70
0
  40
0
  41
1
  42
1
  50
15
  71
0
  3
isocp.shx
  0
STYLE
  2
KICADBI
  70
0
  40
0
  41
1
  42
1
  50
15
  71
0
  3
isocp.shx
  0
ENDTAB
  0
TABLE
  2
LAYER
  70
1
  0
LAYER
  2
BLACK
  70
0
  62
7
  6
CONTINUOUS
  0
ENDTAB
  0
ENDSEC
  0
SECTION
  2
ENTITIES
0
CIRCLE
8
BLACK
10
139.1500000000000057
20
-61.8900000000000006
40
4.
0
LINE
8
BLACK
6
CONTINUOUS
10
107.2393299999999954
20
-44.914670000000001
11
167.2393299999999954
21
-44.914670000000001
0
LINE
8
BLACK
6
CONTINUOUS
10
167.2393299999999954
20
-44.914670000000001
11
167.2393299999999954
21
-94.914670000000001
0
LINE
8
BLACK
6
CONTINUOUS
10
167.2393299999999954
20
-94.914670000000001
11
107.2393299999999954
21
-94.914670000000001
0
LINE
8
BLACK
6
CONTINUOUS
10
107.2393299999999954
20
-94.914670000000001
11
107.2393299999999954
21
-44.914670000000001
0
CIRCLE
8
BLACK
10
112.2393299999999954
20
-47.914670000000001
40
1.5
0
CIRCLE
8
BLACK
10
139.0999999999999943
20
-49.4799999999999969
40
2.5
0
CIRCLE
8
BLACK
10
112.2393299999999954
20
-91.914670000000001
40
1.5
0
CIRCLE
8
BLACK
10
162.2393299999999954
20
-91.914670000000001
40
1.5
0
CIRCLE
8
BLACK
10
162.2393299999999954
20
-47.914670000000001
40
1.5
0
LINE
8
BLACK
6
CONTINUOUS
10
109.8220979999999969
20
-98.0545079999999984
11
109.8220979999999969
21
-96.0545079999999984
0
LINE
8
BLACK
6
CONTINUOUS
10
109.8220979999999969
20
-96.0545079999999984
11
110.2982879999999994
21
-96.0545079999999984
0
LINE
8
BLACK
6
CONTINUOUS
10
110.2982879999999994
20
-96.0545079999999984
11
110.5840029999999956
21
-96.1497459999999933
0
LINE
8
BLACK
6
CONTINUOUS
10
110.5840029999999956
20
-96.1497459999999933
11
110.7744789999999995
21
-96.3402219999999971
0
LINE
8
BLACK
6
CONTINUOUS
10
110.7744789999999995
20
-96.3402219999999971
11
110.8697169999999943
21
-96.530698000000001
0
LINE
8
BLACK
6
CONTINUOUS
10
110.8697169999999943
20
-96.530698000000001
11
110.9649549999999891
21
-96.9116499999999945
0
LINE
8
BLACK
6
CONTINUOUS
10
110.9649549999999891
20
-96.9116499999999945
11
110.9649549999999891
21
-97.1973649999999907
0
LINE
8
BLACK
6
CONTINUOUS
10
110.9649549999999891
20
-97.1973649999999907
11
110.8697169999999943
21
-97.5783169999999984
0
LINE
8
BLACK
6
CONTINUOUS
10
110.8697169999999943
20
-97.5783169999999984
11
110.7744789999999995
21
-97.7687930000000023
0
LINE
8
BLACK
6
CONTINUOUS
10
110.7744789999999995
20
-97.7687930000000023
11
110.5840029999999956
21
-97.9592699999999894
0
LINE
8
BLACK
6
CONTINUOUS
10
110.5840029999999956
20
-97.9592699999999894
11
110.2982879999999994
21
-98.0545079999999984
0
LINE
8
BLACK
6
CONTINUOUS
10
110.2982879999999994
20
-98.0545079999999984
11
109.8220979999999969
21
-98.0545079999999984
0
LINE
8
BLACK
6
CONTINUOUS
10
111.8220979999999969
20
-98.0545079999999984
11
111.8220979999999969
21
-96.7211739999999907
0
LINE
8
BLACK
6
CONTINUOUS
10
111.8220979999999969
20
-97.1021269999999959
11
111.9173359999999917
21
-96.9116499999999945
0
LINE
8
BLACK
6
CONTINUOUS
10
111.9173359999999917
20
-96.9116499999999945
11
112.0125740000000008
21
-96.8164119999999997
0
LINE
8
BLACK
6
CONTINUOUS
10
112.0125740000000008
20
-96.8164119999999997
11
112.2030499999999904
21
-96.7211739999999907
0
LINE
8
BLACK
6
CONTINUOUS
10
112.2030499999999904
20
-96.7211739999999907
11
112.3935269999999917
21
-96.7211739999999907
0
LINE
8
BLACK
6
CONTINUOUS
10
113.0601929999999982
20
-98.0545079999999984
11
113.0601929999999982
21
-96.7211739999999907
0
LINE
8
BLACK
6
CONTINUOUS
10
113.0601929999999982
20
-96.0545079999999984
11
112.9649549999999891
21
-96.1497459999999933
0
LINE
8
BLACK
6
CONTINUOUS
10
112.9649549999999891
20
-96.1497459999999933
11
113.0601929999999982
21
-96.2449840000000023
0
LINE
8
BLACK
6
CONTINUOUS
10
113.0601929999999982
20
-96.2449840000000023
11
113.155430999999993
21
-96.1497459999999933
0
LINE
8
BLACK
6
CONTINUOUS
10
113.155430999999993
20
-96.1497459999999933
11
113.0601929999999982
21
-96.0545079999999984
0
LINE
8
BLACK
6
CONTINUOUS
10
113.0601929999999982
20
-96.0545079999999984
11
113.0601929999999982
21
-96.2449840000000023
0
LINE
8
BLACK
6
CONTINUOUS
10
114.2982879999999994
20
-98.0545079999999984
11
114.1078119999999956
21
-97.9592699999999894
0
LINE
8
BLACK
6
CONTINUOUS
10
114.1078119999999956
20
-97.9592699999999894
11
114.0125740000000008
21
-97.7687930000000023
0
LINE
8
BLACK
6
CONTINUOUS
10
114.0125740000000008
20
-97.7687930000000023
11
114.0125740000000008
21
-96.0545079999999984
0
LINE
8
BLACK
6
CONTINUOUS
10
115.3459069999999969
20
-98.0545079999999984
11
115.155430999999993
21
-97.9592699999999894
0
LINE
8
BLACK
6
CONTINUOUS
10
115.155430999999993
20
-97.9592699999999894
11
115.0601929999999982
21
-97.7687930000000023
0
LINE
8
BLACK
6
CONTINUOUS
10
115.0601929999999982
20
-97.7687930000000023
11
115.0601929999999982
21
-96.0545079999999984
0
LINE
8
BLACK
6
CONTINUOUS
10
117.631621999999993
20
-98.0545079999999984
11
117.631621999999993
21
-96.0545079999999984
0
LINE
8
BLACK
6
CONTINUOUS
10
117.631621999999993
20
-96.0545079999999984
11
118.2982889999999969
21
-97.4830789999999894
0
LINE
8
BLACK
6
CONTINUOUS
10
118.2982889999999969
20
-97.4830789999999894
11
118.9649549999999891
21
-96.0545079999999984
0
LINE
8
BLACK
6
CONTINUOUS
10
118.9649549999999891
20
-96.0545079999999984
11
118.9649549999999891
21
-98.0545079999999984
0
LINE
8
BLACK
6
CONTINUOUS
10
120.7744789999999995
20
-98.0545079999999984
11
120.7744789999999995
21
-97.006889000000001
0
LINE
8
BLACK
6
CONTINUOUS
10
120.7744789999999995
20
-97.006889000000001
11
120.6792409999999904
21
-96.8164119999999997
0
LINE
8
BLACK
6
CONTINUOUS
10
120.6792409999999904
20
-96.8164119999999997
11
120.4887650000000008
21
-96.7211739999999907
0
LINE
8
BLACK
6
CONTINUOUS
10
120.4887650000000008
20
-96.7211739999999907
11
120.1078119999999956
21
-96.7211739999999907
0
LINE
8
BLACK
6
CONTINUOUS
10
120.1078119999999956
20
-96.7211739999999907
11
119.9173359999999917
21
-96.8164119999999997
0
LINE
8
BLACK
6
CONTINUOUS
10
120.7744789999999995
20
-97.9592699999999894
11
120.5840029999999956
21
-98.0545079999999984
0
LINE
8
BLACK
6
CONTINUOUS
10
120.5840029999999956
20
-98.0545079999999984
11
120.1078119999999956
21
-98.0545079999999984
0
LINE
8
BLACK
6
CONTINUOUS
10
120.1078119999999956
20
-98.0545079999999984
11
119.9173359999999917
21
-97.9592699999999894
0
LINE
8
BLACK
6
CONTINUOUS
10
119.9173359999999917
20
-97.9592699999999894
11
119.8220979999999969
21
-97.7687930000000023
0
LINE
8
BLACK
6
CONTINUOUS
10
119.8220979999999969
20
-97.7687930000000023
11
119.8220979999999969
21
-97.5783169999999984
0
LINE
8
BLACK
6
CONTINUOUS
10
119.8220979999999969
20
-97.5783169999999984
11
119.9173359999999917
21
-97.3878409999999946
0
LINE
8
BLACK
6
CONTINUOUS
10
119.9173359999999917
20
-97.3878409999999946
11
120.1078119999999956
21
-97.2926029999999997
0
LINE
8
BLACK
6
CONTINUOUS
10
120.1078119999999956
20
-97.2926029999999997
11
120.5840029999999956
21
-97.2926029999999997
0
LINE
8
BLACK
6
CONTINUOUS
10
120.5840029999999956
20
-97.2926029999999997
11
120.7744789999999995
21
-97.1973649999999907
0
LINE
8
BLACK
6
CONTINUOUS
10
121.7268599999999878
20
-96.7211739999999907
11
121.7268599999999878
21
-98.7211739999999907
0
LINE
8
BLACK
6
CONTINUOUS
10
121.7268599999999878
20
-96.8164119999999997
11
121.9173359999999917
21
-96.7211739999999907
0
LINE
8
BLACK
6
CONTINUOUS
10
121.9173359999999917
20
-96.7211739999999907
11
122.2982889999999969
21
-96.7211739999999907
0
LINE
8
BLACK
6
CONTINUOUS
10
122.2982889999999969
20
-96.7211739999999907
11
122.4887650000000008
21
-96.8164119999999997
0
LINE
8
BLACK
6
CONTINUOUS
10
122.4887650000000008
20
-96.8164119999999997
11
122.5840029999999956
21
-96.9116499999999945
0
LINE
8
BLACK
6
CONTINUOUS
10
122.5840029999999956
20
-96.9116499999999945
11
122.6792409999999904
21
-97.1021269999999959
0
LINE
8
BLACK
6
CONTINUOUS
10
122.6792409999999904
20
-97.1021269999999959
11
122.6792409999999904
21
-97.6735549999999932
0
LINE
8
BLACK
6
CONTINUOUS
10
122.6792409999999904
20
-97.6735549999999932
11
122.5840029999999956
21
-97.8640309999999971
0
LINE
8
BLACK
6
CONTINUOUS
10
122.5840029999999956
20
-97.8640309999999971
11
122.4887650000000008
21
-97.9592699999999894
0
LINE
8
BLACK
6
CONTINUOUS
10
122.4887650000000008
20
-97.9592699999999894
11
122.2982889999999969
21
-98.0545079999999984
0
LINE
8
BLACK
6
CONTINUOUS
10
122.2982889999999969
20
-98.0545079999999984
11
121.9173359999999917
21
-98.0545079999999984
0
LINE
8
BLACK
6
CONTINUOUS
10
121.9173359999999917
20
-98.0545079999999984
11
121.7268599999999878
21
-97.9592699999999894
0
LINE
8
BLACK
6
CONTINUOUS
10
123.5363839999999982
20
-97.8640309999999971
11
123.631621999999993
21
-97.9592699999999894
0
LINE
8
BLACK
6
CONTINUOUS
10
123.631621999999993
20
-97.9592699999999894
11
123.5363839999999982
21
-98.0545079999999984
0
LINE
8
BLACK
6
CONTINUOUS
10
123.5363839999999982
20
-98.0545079999999984
11
123.4411459999999892
21
-97.9592699999999894
0
LINE
8
BLACK
6
CONTINUOUS
10
123.4411459999999892
20
-97.9592699999999894
11
123.5363839999999982
21
-97.8640309999999971
0
LINE
8
BLACK
6
CONTINUOUS
10
123.5363839999999982
20
-97.8640309999999971
11
123.5363839999999982
21
-98.0545079999999984
0
LINE
8
BLACK
6
CONTINUOUS
10
123.5363839999999982
20
-96.8164119999999997
11
123.631621999999993
21
-96.9116499999999945
0
LINE
8
BLACK
6
CONTINUOUS
10
123.631621999999993
20
-96.9116499999999945
11
123.5363839999999982
21
-97.006889000000001
0
LINE
8
BLACK
6
CONTINUOUS
10
123.5363839999999982
20
-97.006889000000001
11
123.4411459999999892
21
-96.9116499999999945
0
LINE
8
BLACK
6
CONTINUOUS
10
123.4411459999999892
20
-96.9116499999999945
11
123.5363839999999982
21
-96.8164119999999997
0
LINE
8
BLACK
6
CONTINUOUS
10
123.5363839999999982
20
-96.8164119999999997
11
123.5363839999999982
21
-97.006889000000001
  0
ENDSEC
  0
EOF
